<svg width="105" height="120" viewBox="0 0 105 120" fill="none" xmlns="http://www.w3.org/2000/svg">
<mask id="mask0_13_26" style="mask-type:luminance" maskUnits="userSpaceOnUse" x="0" y="0" width="105" height="120">
<path d="M104.299 0.412567H0.70105V119.588H104.299V0.412567Z" fill="white"/>
</mask>
<g mask="url(#mask0_13_26)">
<path d="M24.966 72.2695C28.9565 66.623 34.5876 62.341 41.0951 60.0045C34.6015 57.679 28.981 53.4114 24.9967 47.7811C21.0123 42.1509 18.8572 35.4309 18.824 28.5335C18.824 28.4975 18.817 28.4685 18.817 28.4425L18.824 0.415497H0.70105V119.588H18.824L18.817 91.5605C18.817 91.5355 18.824 91.5065 18.824 91.4695C18.8605 84.5921 21.0041 77.8912 24.966 72.2695Z" fill="#0D988C"/>
<path d="M52.4781 57.8696C60.2663 57.8116 67.7193 54.6932 73.2283 49.1876C78.7373 43.682 81.8602 36.2308 81.923 28.4426V0.423569L63.7751 18.5606V28.4396C63.8201 29.9512 63.5611 31.4564 63.0137 32.866C62.4663 34.2757 61.6416 35.5612 60.5883 36.6463C59.535 37.7314 58.2747 38.594 56.882 39.1831C55.4892 39.7722 53.9923 40.0757 52.4801 40.0757C50.9679 40.0757 49.471 39.7722 48.0783 39.1831C46.6855 38.594 45.4251 37.7314 44.3718 36.6463C43.3185 35.5612 42.4938 34.2757 41.9464 32.866C41.399 31.4564 41.1401 29.9512 41.1851 28.4396V18.5316L23.0851 0.412567V28.4396C23.1296 36.2248 26.2395 43.679 31.7411 49.1875C37.2427 54.696 44.693 57.8153 52.4781 57.8696Z" fill="#004F5D"/>
<path d="M52.478 62.1335C44.6932 62.1876 37.2431 65.3063 31.7414 70.8142C26.2397 76.3221 23.1293 83.7757 23.084 91.5605V119.588L41.184 101.469V91.5605C41.139 90.049 41.3979 88.5438 41.9453 87.1341C42.4927 85.7244 43.3174 84.4389 44.3707 83.3539C45.424 82.2688 46.6844 81.4061 48.0771 80.817C49.4699 80.2279 50.9668 79.9244 52.479 79.9244C53.9912 79.9244 55.4881 80.2279 56.8809 80.817C58.2736 81.4061 59.534 82.2688 60.5873 83.3539C61.6406 84.4389 62.4653 85.7244 63.0127 87.1341C63.5601 88.5438 63.819 90.049 63.774 91.5605V101.44L81.922 119.578V91.5605C81.8592 83.7723 78.7363 76.3212 73.2273 70.8156C67.7183 65.31 60.2663 62.1916 52.478 62.1335Z" fill="#004F5D"/>
<path d="M104.299 0.423553H86.1871V28.4396C86.165 35.3522 84.0143 42.0902 80.0276 47.7374C76.0408 53.3845 70.4115 57.6667 63.9051 60.0016C70.4116 62.3353 76.0413 66.6168 80.0282 72.2635C84.015 77.9103 86.1655 84.6482 86.1871 91.5606V119.578H104.299V0.423553Z" fill="#0D988C"/>
</g>
</svg>
