<svg width="485" height="104" viewBox="0 0 485 104" fill="none" xmlns="http://www.w3.org/2000/svg">
<mask id="mask0_2_36" style="mask-type:luminance" maskUnits="userSpaceOnUse" x="0" y="0" width="91" height="104">
<path d="M90.5001 0.233871H0.500061V103.766H90.5001V0.233871Z" fill="white"/>
</mask>
<g mask="url(#mask0_2_36)">
<path d="M21.5801 62.6594C25.0468 57.7541 29.9387 54.0341 35.5921 52.0043C29.9508 49.984 25.068 46.2766 21.6067 41.3853C18.1453 36.4941 16.2731 30.6561 16.2443 24.6641C16.2443 24.6328 16.2382 24.6076 16.2382 24.585L16.2443 0.236801H0.500061V103.767H16.2443L16.2382 79.4183C16.2382 79.3966 16.2443 79.3714 16.2443 79.3393C16.276 73.3646 18.1382 67.5432 21.5801 62.6594Z" fill="#0D988C"/>
<path d="M45.481 50.1492C52.2469 50.0988 58.7217 47.3897 63.5076 42.6068C68.2935 37.8238 71.0065 31.3507 71.0611 24.5847V0.243429L55.2952 15.9998V24.5821C55.3342 25.8953 55.1093 27.2029 54.6338 28.4275C54.1582 29.6522 53.4418 30.769 52.5267 31.7116C51.6117 32.6543 50.5167 33.4037 49.3068 33.9155C48.0968 34.4272 46.7964 34.6909 45.4827 34.6909C44.169 34.6909 42.8686 34.4272 41.6587 33.9155C40.4487 33.4037 39.3537 32.6543 38.4387 31.7116C37.5236 30.769 36.8072 29.6522 36.3316 28.4275C35.8561 27.2029 35.6312 25.8953 35.6703 24.5821V15.9746L19.946 0.233871V24.5821C19.9847 31.3455 22.6864 37.8212 27.4659 42.6067C32.2453 47.3922 38.7177 50.102 45.481 50.1492Z" fill="#004F5D"/>
<path d="M45.4809 53.8535C38.7179 53.9004 32.2457 56.6098 27.4662 61.3947C22.6866 66.1797 19.9845 72.655 19.9451 79.4179V103.766L35.6693 88.0255V79.4179C35.6302 78.1048 35.8552 76.7972 36.3307 75.5725C36.8063 74.3479 37.5227 73.2311 38.4378 72.2885C39.3528 71.3458 40.4478 70.5964 41.6577 70.0846C42.8677 69.5728 44.1681 69.3092 45.4818 69.3092C46.7955 69.3092 48.0959 69.5728 49.3059 70.0846C50.5158 70.5964 51.6108 71.3458 52.5258 72.2885C53.4409 73.2311 54.1573 74.3479 54.6329 75.5725C55.1084 76.7972 55.3333 78.1048 55.2942 79.4179V88.0003L71.0602 103.758V79.4179C71.0056 72.652 68.2926 66.1789 63.5067 61.396C58.7208 56.613 52.2469 53.9039 45.4809 53.8535Z" fill="#004F5D"/>
<path d="M90.5001 0.243416H74.7654V24.5821C74.7462 30.5874 72.8778 36.441 69.4144 41.3469C65.9509 46.2528 61.0605 49.973 55.4081 52.0014C61.0606 54.0288 65.9513 57.7483 69.4149 62.6538C72.8784 67.5594 74.7466 73.4129 74.7654 79.418V103.758H90.5001V0.243416Z" fill="#0D988C"/>
</g>
<path d="M173.82 73.0001H166.145V47.9805L152.639 71.7403C152.307 72.3458 151.838 72.8048 151.232 73.1173C150.647 73.4298 150.012 73.586 149.328 73.586C148.664 73.586 148.039 73.4298 147.453 73.1173C146.887 72.8048 146.438 72.3458 146.106 71.7403L132.541 47.9805V73.0001H124.924V34.2403C124.924 33.3614 125.178 32.5802 125.686 31.8966C126.213 31.213 126.897 30.754 127.736 30.5196C128.147 30.422 128.557 30.3927 128.967 30.4317C129.377 30.4512 129.768 30.5391 130.139 30.6954C130.529 30.8321 130.881 31.0372 131.193 31.3106C131.506 31.5645 131.77 31.877 131.984 32.2481L149.328 62.3946L166.672 32.2481C167.121 31.5059 167.736 30.9786 168.518 30.6661C169.318 30.3536 170.148 30.3048 171.008 30.5196C171.828 30.754 172.502 31.213 173.029 31.8966C173.557 32.5802 173.82 33.3614 173.82 34.2403V73.0001ZM216.066 62.3067C216.066 63.6153 215.9 64.797 215.568 65.8516C215.236 66.8868 214.797 67.8048 214.25 68.6055C213.703 69.3868 213.068 70.0606 212.346 70.627C211.623 71.1739 210.861 71.6231 210.061 71.9747C209.279 72.3262 208.479 72.5899 207.658 72.7657C206.857 72.922 206.096 73.0001 205.373 73.0001H191.633C190.578 73.0001 189.426 72.8145 188.176 72.4434C186.926 72.0723 185.764 71.4669 184.69 70.627C183.635 69.7677 182.746 68.6641 182.023 67.3165C181.32 65.9493 180.969 64.2794 180.969 62.3067V51.9942C180.969 50.0411 181.32 48.3907 182.023 47.043C182.746 45.6759 183.635 44.5723 184.69 43.7325C185.764 42.8731 186.926 42.2579 188.176 41.8868C189.426 41.5157 190.578 41.3302 191.633 41.3302H205.373C207.326 41.3302 208.986 41.6817 210.354 42.3848C211.721 43.088 212.824 43.9766 213.664 45.0509C214.504 46.1055 215.109 47.2579 215.481 48.5079C215.871 49.7579 216.066 50.92 216.066 51.9942V62.3067ZM208.449 52.0528C208.449 50.9981 208.186 50.2169 207.658 49.7091C207.131 49.2012 206.369 48.9473 205.373 48.9473H191.691C190.676 48.9473 189.904 49.211 189.377 49.7384C188.85 50.2462 188.586 50.9981 188.586 51.9942V62.3067C188.586 63.3028 188.85 64.0645 189.377 64.5919C189.904 65.1192 190.676 65.3829 191.691 65.3829H205.373C206.408 65.3829 207.18 65.1192 207.688 64.5919C208.195 64.0645 208.449 63.3028 208.449 62.3067V52.0528ZM260.363 41.3302C259.504 44.0059 258.498 46.6427 257.346 49.2403C256.193 51.838 254.865 54.3184 253.361 56.6817C251.877 59.0255 250.207 61.2032 248.352 63.2149C246.516 65.2071 244.475 66.9356 242.229 68.4005C240.002 69.8458 237.57 70.9884 234.934 71.8282C232.316 72.6485 229.475 73.0587 226.408 73.0587C225.881 73.0587 225.383 72.961 224.914 72.7657C224.445 72.5704 224.035 72.3067 223.684 71.9747C223.332 71.6231 223.059 71.2227 222.863 70.7735C222.668 70.3048 222.57 69.8067 222.57 69.2794V41.3302H230.188V65.1485C232.043 65.1485 233.82 64.7481 235.52 63.9473C237.238 63.1466 238.859 62.0919 240.383 60.7833C241.906 59.4552 243.313 57.9512 244.602 56.2716C245.91 54.5919 247.072 52.8731 248.088 51.1153C249.104 49.338 249.963 47.5997 250.666 45.9005C251.389 44.2012 251.926 42.6778 252.277 41.3302H260.363ZM270.852 34.8262H263.234V27.9415H270.852V34.8262ZM270.852 73.0001H263.234V41.3302H270.852V73.0001ZM312.248 51.8184C312.248 52.8731 312.063 54.0157 311.691 55.2462C311.32 56.4571 310.715 57.5899 309.875 58.6446C309.055 59.6798 307.971 60.5489 306.623 61.252C305.295 61.9552 303.674 62.3067 301.76 62.3067H288.02V55.0704H301.76C302.795 55.0704 303.596 54.7579 304.162 54.1329C304.729 53.4884 305.012 52.6973 305.012 51.7598C305.012 50.7637 304.69 49.9825 304.045 49.4161C303.42 48.8497 302.658 48.5665 301.76 48.5665H288.02C286.984 48.5665 286.184 48.8887 285.617 49.5333C285.051 50.1583 284.768 50.9395 284.768 51.877V62.5118C284.768 63.5274 285.08 64.3184 285.705 64.8848C286.35 65.4512 287.141 65.7345 288.078 65.7345H301.76V73.0001H288.02C286.965 73.0001 285.822 72.8145 284.592 72.4434C283.381 72.0723 282.248 71.4766 281.193 70.6563C280.158 69.8165 279.289 68.7325 278.586 67.4044C277.883 66.0567 277.531 64.4259 277.531 62.5118V51.8184C277.531 50.7637 277.717 49.6309 278.088 48.42C278.459 47.1895 279.055 46.0567 279.875 45.0216C280.715 43.9669 281.799 43.088 283.127 42.3848C284.475 41.6817 286.106 41.3302 288.02 41.3302H301.76C302.815 41.3302 303.947 41.5157 305.158 41.8868C306.389 42.2579 307.522 42.8634 308.557 43.7032C309.611 44.5235 310.49 45.6075 311.193 46.9552C311.897 48.2833 312.248 49.9044 312.248 51.8184ZM347.99 62.3067C347.99 63.6153 347.824 64.797 347.492 65.8516C347.16 66.8868 346.721 67.8048 346.174 68.6055C345.627 69.3868 344.992 70.0606 344.27 70.627C343.547 71.1739 342.785 71.6231 341.984 71.9747C341.203 72.3262 340.402 72.5899 339.582 72.7657C338.781 72.922 338.02 73.0001 337.297 73.0001H316.672V65.3829H337.238C338.273 65.3829 339.055 65.1192 339.582 64.5919C340.109 64.0645 340.373 63.3028 340.373 62.3067C340.275 60.2755 339.25 59.2598 337.297 59.2598H325.49C323.811 59.2598 322.385 58.9669 321.213 58.3809C320.041 57.795 319.084 57.0626 318.342 56.1837C317.619 55.3048 317.092 54.3575 316.76 53.3419C316.447 52.3262 316.291 51.379 316.291 50.5001C316.291 48.8009 316.594 47.3751 317.199 46.2227C317.805 45.0509 318.566 44.1036 319.484 43.3809C320.402 42.6583 321.398 42.1407 322.473 41.8282C323.547 41.4962 324.553 41.3302 325.49 41.3302H344.211V48.9473H325.549C325.158 48.9473 324.846 48.9962 324.611 49.0938C324.397 49.172 324.231 49.2891 324.113 49.4454C324.016 49.5821 323.957 49.7384 323.938 49.9141C323.918 50.0704 323.908 50.2266 323.908 50.3829C323.928 50.6954 323.986 50.9395 324.084 51.1153C324.182 51.2911 324.299 51.418 324.436 51.4962C324.592 51.5743 324.758 51.6231 324.934 51.6427C325.129 51.6427 325.315 51.6427 325.49 51.6427H337.297C339.25 51.6427 340.91 51.9942 342.277 52.6973C343.645 53.4005 344.748 54.2891 345.588 55.3634C346.428 56.418 347.033 57.5704 347.404 58.8204C347.795 60.0704 347.99 61.2325 347.99 62.3067ZM361.877 48.1563H388.625V30.9884H396.242V73.0001H388.625V55.8321H361.877V73.0001H354.26V30.9884H361.877V48.1563ZM438.781 69.1622C438.781 69.7091 438.684 70.2169 438.488 70.6856C438.293 71.1544 438.02 71.5645 437.668 71.9161C437.336 72.2481 436.936 72.5118 436.467 72.7071C436.018 72.9024 435.529 73.0001 435.002 73.0001H417.775C416.838 73.0001 415.832 72.8927 414.758 72.6778C413.703 72.463 412.658 72.1212 411.623 71.6524C410.588 71.1641 409.582 70.5587 408.606 69.836C407.648 69.0938 406.809 68.2052 406.086 67.17C405.363 66.1153 404.777 64.9044 404.328 63.5372C403.898 62.17 403.684 60.627 403.684 58.9083V41.3302H411.301V58.9083C411.301 59.9044 411.467 60.8028 411.799 61.6036C412.15 62.3848 412.619 63.0587 413.205 63.6251C413.791 64.1915 414.475 64.6309 415.256 64.9434C416.057 65.2364 416.916 65.3829 417.834 65.3829H431.164V41.3302H438.781V69.1622ZM480.852 62.3067C480.852 63.0294 480.764 63.7911 480.588 64.5919C480.432 65.3927 480.178 66.1934 479.826 66.9942C479.475 67.7755 479.016 68.5274 478.449 69.2501C477.902 69.9727 477.229 70.6173 476.428 71.1837C475.647 71.7305 474.738 72.17 473.703 72.502C472.668 72.8341 471.496 73.0001 470.188 73.0001H456.447C455.725 73.0001 454.963 72.922 454.162 72.7657C453.361 72.5899 452.561 72.3262 451.76 71.9747C450.979 71.6231 450.227 71.1739 449.504 70.627C448.781 70.0606 448.137 69.3868 447.57 68.6055C447.023 67.8048 446.584 66.8868 446.252 65.8516C445.92 64.797 445.754 63.6153 445.754 62.3067V27.9415H453.371V62.3067C453.371 63.2442 453.664 63.9962 454.25 64.5626C454.836 65.1095 455.568 65.3829 456.447 65.3829H470.188C471.145 65.3829 471.887 65.0997 472.414 64.5333C472.961 63.9669 473.234 63.2247 473.234 62.3067V51.9942C473.234 51.0372 472.951 50.295 472.385 49.7677C471.818 49.2208 471.086 48.9473 470.188 48.9473H456.447V41.3302H470.188C470.91 41.3302 471.672 41.418 472.473 41.5938C473.273 41.7501 474.065 42.004 474.846 42.3555C475.647 42.7071 476.408 43.1661 477.131 43.7325C477.854 44.2794 478.488 44.9532 479.035 45.754C479.582 46.5352 480.022 47.4434 480.354 48.4786C480.686 49.5137 480.852 50.6856 480.852 51.9942V62.3067Z" fill="white"/>
</svg>
